<?xml version="1.0" encoding="UTF-8" standalone="no"?>
<svg
   width="512"
   height="512"
   viewBox="0 0 512 512"
   version="1.1"
   id="svg1"
   sodipodi:docname="logo.svg"
   inkscape:version="1.4 (e7c3feb100, 2024-10-09)"
   inkscape:export-filename="logo.png"
   inkscape:export-xdpi="96"
   inkscape:export-ydpi="96"
   xmlns:inkscape="http://www.inkscape.org/namespaces/inkscape"
   xmlns:sodipodi="http://sodipodi.sourceforge.net/DTD/sodipodi-0.dtd"
   xmlns="http://www.w3.org/2000/svg"
   xmlns:svg="http://www.w3.org/2000/svg">
  <defs
     id="defs1" />
  <sodipodi:namedview
     id="namedview1"
     pagecolor="#ffffff"
     bordercolor="#000000"
     borderopacity="0.25"
     inkscape:showpageshadow="2"
     inkscape:pageopacity="0.0"
     inkscape:pagecheckerboard="0"
     inkscape:deskcolor="#d1d1d1"
     inkscape:zoom="2.2308247"
     inkscape:cx="184.46093"
     inkscape:cy="246.5456"
     inkscape:window-width="3683"
     inkscape:window-height="2210"
     inkscape:window-x="0"
     inkscape:window-y="42"
     inkscape:window-maximized="1"
     inkscape:current-layer="svg1"
     inkscape:export-bgcolor="#ffffff00" />
  <path
     fill="currentColor"
     d="m 207.0272,20.364849 a 70.4,70.4 0 0 1 97.9456,0 L 486.656,196.23685 A 83.2,83.2 0 0 1 512,256.03844 v 171.264 a 57.6,57.6 0 0 1 -57.6,57.6 h -27.2384 l -1.4336,-0.3584 -10.2912,-2.5088 a 1792,1792 0 0 1 -36.864,-9.6768 1612.8,1612.8 0 0 1 -111.6928,-34.7136 c -40.704,-14.464 -80.384,-31.104 -109.568,-48.6656 -14.6432,-8.8064 -25.7536,-17.3312 -33.024,-25.2672 -7.3472,-8.0384 -9.088,-13.6448 -9.088,-17.0496 0,-7.9872 5.12,-16.5632 26.112,-25.2416 20.48,-8.448 48.9728,-13.7984 80.3328,-18.688 l 17.792,-2.688 c 24.96,-3.7376 50.5344,-7.5776 71.424,-13.0048 13.0048,-3.4048 25.6512,-7.7312 35.9168,-13.8496 10.24,-6.144 20.352,-15.4112 23.8592,-29.3888 3.9424,-15.79519 -2.3296,-29.46559 -10.5216,-39.60319 -8.0128,-9.8816 -19.4816,-18.6368 -31.5648,-26.3936 -17.3056,-11.136 -39.3984,-22.4512 -61.0048,-33.5104 a 2150.4,2150.4 0 0 1 -24.4736,-12.6464 c -29.952,-15.8208 -54.5792,-30.7712 -67.6608,-45.670401 -6.2464,-7.1424 -8.3456,-12.5952 -8.576,-16.64 -0.2304,-3.6608 0.8448,-9.2672 7.808,-17.4336 l 0.5888,-0.768 z M 133.504,91.532849 25.344001,196.23685 A 83.2,83.2 0 0 0 7.0386671e-7,256.03844 v 171.264 A 57.6,57.6 0 0 0 57.6,484.90244 h 228.9152 a 1356.8,1356.8 0 0 1 -32.512,-11.0592 c -41.472,-14.7712 -84.0192,-32.4352 -116.5056,-51.968 -16.2048,-9.7536 -30.7968,-20.48 -41.5232,-32.256 C 85.3248,377.99684 76.8,363.50724 76.8,346.66244 c 0,-32.4864 25.1136,-50.5088 49.8944,-60.7488 25.2928,-10.4448 58.1632,-16.3072 89.0368,-21.0944 q 9.6768,-1.536 19.072,-2.9184 c 24.7552,-3.712 47.6672,-7.168 66.4064,-12.032 q 17.4336,-4.5824 25.8816,-9.65119 c 5.6832,-3.4048 6.2464,-5.5552 6.272,-5.7344 0.0256,-0.1792 0.128,-0.4608 -0.1024,-1.152 a 15.36,15.36 0 0 0 -3.0208,-4.9664 c -4.096,-5.12 -11.4944,-11.2128 -22.4768,-18.2784 -15.616,-10.0352 -34.944,-19.9424 -55.808,-30.6176 a 2304,2304 0 0 1 -26.8288,-13.8752 c -29.2096,-15.4368 -60.16,-33.28 -78.5664,-54.272 A 79.36,79.36 0 0 1 133.504,91.532849"
     id="path1"
     style="fill:#0077ff;fill-opacity:1;stroke-width:25.6" />
</svg>
