<svg xmlns="http://www.w3.org/2000/svg" width="512" height="512"><path fill="currentColor" d="M207.027 20.365a70.4 70.4 0 0 1 97.946 0l181.683 175.872A83.2 83.2 0 0 1 512 256.038v171.264a57.6 57.6 0 0 1-57.6 57.6h-27.238l-1.434-.358-10.291-2.509a1792 1792 0 0 1-36.864-9.677 1613 1613 0 0 1-111.693-34.713c-40.704-14.464-80.384-31.104-109.568-48.666-14.643-8.806-25.754-17.331-33.024-25.267-7.347-8.038-9.088-13.645-9.088-17.05 0-7.987 5.12-16.563 26.112-25.241 20.48-8.448 48.973-13.799 80.333-18.688l17.792-2.688c24.96-3.738 50.534-7.578 71.424-13.005 13.005-3.405 25.651-7.731 35.917-13.85 10.24-6.144 20.352-15.41 23.859-29.388 3.942-15.796-2.33-29.466-10.522-39.604-8.013-9.881-19.481-18.636-31.565-26.393-17.305-11.136-39.398-22.451-61.004-33.51a2150 2150 0 0 1-24.474-12.647c-29.952-15.82-54.58-30.771-67.66-45.67-6.247-7.143-8.346-12.596-8.577-16.64-.23-3.661.845-9.268 7.808-17.434l.589-.768zm-73.523 71.168L25.344 196.237A83.2 83.2 0 0 0 0 256.038v171.264a57.6 57.6 0 0 0 57.6 57.6h228.915a1357 1357 0 0 1-32.512-11.059c-41.472-14.771-84.019-32.435-116.505-51.968-16.205-9.753-30.797-20.48-41.524-32.256-10.65-11.622-19.174-26.112-19.174-42.957 0-32.486 25.114-50.508 49.894-60.748 25.293-10.445 58.164-16.308 89.037-21.095q9.677-1.536 19.072-2.918c24.755-3.712 47.667-7.168 66.407-12.032q17.433-4.583 25.881-9.651c5.683-3.405 6.247-5.556 6.272-5.735s.128-.46-.102-1.152a15.4 15.4 0 0 0-3.021-4.966c-4.096-5.12-11.494-11.213-22.477-18.279-15.616-10.035-34.944-19.942-55.808-30.617a2304 2304 0 0 1-26.829-13.875c-29.21-15.437-60.16-33.28-78.566-54.272a79.4 79.4 0 0 1-13.056-19.79" style="fill:#09f;fill-opacity:1;stroke-width:25.6"/></svg>